<svg height="200" viewBox="0 0 1251 1024" width="244.335938" xmlns="http://www.w3.org/2000/svg"><g fill="#333"><path d="m55.182222 606.435556 1.137778 1.137777 46.648889 39.253334 130.844444 109.795555c22.186667 18.773333 54.044444 29.013333 83.626667 29.013334 15.36 0 29.582222-2.844444 42.097778-8.533334l426.097778-198.542222-4.551112-10.24-426.097777 198.542222c-32.426667 14.791111-83.057778 6.826667-113.777778-18.773333l-130.844445-109.795556-46.648888-39.253333c-1.706667-1.137778-2.844444-2.275556-3.982223-3.982222-11.377778-10.808889-17.066667-23.324444-16.497777-35.271111.568889-8.533333 5.12-15.928889 11.946666-21.617778l1.137778 1.137778 46.648889 39.253333 130.844444 109.795556c22.186667 18.773333 54.044444 29.013333 83.626667 29.013333 15.36 0 29.582222-2.844444 42.097778-8.533333l519.964444-242.346667 42.666667-19.911111c3.413333-1.706667 6.257778-3.413333 9.671111-5.12l-3.413333-5.12 3.413333 5.12c11.946667-8.533333 19.342222-19.911111 20.48-32.995556 1.137778-13.084444-4.551111-27.306667-15.36-39.253333 9.671111-7.964444 14.791111-18.773333 15.36-30.151111.568889-16.497778-7.964444-32.995556-24.462222-47.217778l-178.062222-149.617778c-33.564444-27.875556-89.884444-36.977778-125.724445-20.48l-562.062222 262.257778c-16.497778 7.964444-27.306667 19.911111-29.582222 34.702222-2.275556 14.222222 2.844444 29.582222 14.791111 42.666667-9.102222 7.964444-14.222222 17.635556-15.36 29.013333-1.137778 13.084444 4.551111 27.306667 15.36 39.253334-9.102222 7.964444-14.222222 17.635556-15.36 29.013333-1.137778 13.084444 4.551111 27.306667 15.36 39.253333-9.102222 7.964444-14.222222 17.635556-15.36 29.013334-1.137778 13.084444 4.551111 27.306667 15.36 39.253333-9.671111 7.964444-14.791111 18.773333-15.36 30.151111-.568889 16.497778 7.964444 32.995556 24.462222 47.217778l178.062222 149.617778c22.186667 18.773333 54.044444 29.013333 83.626667 29.013333 15.36 0 29.582222-2.844444 42.097778-8.533333l410.737777-191.715556-4.551111-10.24-410.737777 191.715556c-32.426667 14.791111-83.057778 6.826667-113.777778-18.773334l-178.062222-149.048889c-13.653333-11.946667-21.048889-25.031111-20.48-37.546666.568889-8.533333 4.551111-16.497778 11.946666-22.755556l1.137778 1.137778 178.062222 148.48c33.564444 27.875556 89.884444 36.977778 125.724445 20.48l407.324444-190.008889-4.551111-10.24-407.324444 190.008889c-32.426667 14.791111-83.057778 6.826667-113.777778-18.773333l-178.062222-149.048889c-1.706667-1.137778-2.844444-2.275556-3.982223-3.982223-11.377778-10.808889-17.066667-23.324444-16.497777-35.271111 1.137778-8.533333 5.12-15.928889 11.946666-21.617777zm-11.377778-185.457778c1.706667-10.808889 10.24-20.48 23.324445-26.737778l562.062222-262.257778c32.426667-14.791111 83.057778-6.826667 113.777778 18.773334l178.062222 149.048888c13.653333 11.946667 21.048889 25.031111 20.48 37.546667-.568889 10.24-5.688889 18.773333-15.928889 25.6-2.844444 1.706667-5.12 3.413333-7.964444 4.551111l-42.666667 19.911111-519.395555 242.346667c-32.426667 14.791111-83.057778 6.826667-113.777778-18.773333l-130.844445-109.795556-46.648889-39.253333c-1.706667-1.137778-2.844444-2.275556-3.982222-3.982222-13.084444-11.946667-18.773333-25.031111-16.497778-36.977778zm-.568888 70.542222c.568889-8.533333 5.12-15.928889 11.946666-21.617778l1.137778 1.137778 46.648889 39.253333 130.844444 109.795556c22.186667 18.773333 54.044444 29.013333 83.626667 29.013333 15.36 0 29.582222-2.844444 42.097778-8.533333l519.964444-242.346667 42.666667-19.911111c1.706667-.568889 3.413333-1.706667 5.12-2.844444 9.671111 10.24 14.222222 21.617778 13.084444 31.857777-.568889 9.671111-6.257778 18.204444-15.36 24.462223-2.844444 1.706667-5.12 3.413333-7.964444 4.551111l-42.666667 19.911111-519.395555 242.346667c-32.426667 14.791111-83.057778 6.826667-113.777778-18.773334l-130.844445-109.795555-46.648888-39.253334c-1.706667-1.137778-2.844444-2.275556-3.982223-3.982222-11.377778-11.377778-17.066667-23.893333-16.497777-35.271111z"/><path d="m377.173333 398.222222 5.12 10.24 85.333334-39.822222 47.786666 39.822222-81.351111 37.546667 5.12 10.24 85.902222-39.822222 61.44 51.768889 7.395556-8.533334-57.457778-48.355555 85.902222-40.391111-5.12-10.24-90.453333 42.097777-47.786667-39.253333 86.471112-40.391111-5.12-10.24-66.56 31.288889-18.204445-76.8-11.377778 2.844444 19.342223 78.506667-39.253334 18.204444-119.466666-35.271111-3.413334 10.808889 106.951111 31.857778zm643.413334 76.231111c-112.071111 0-203.093333 91.022222-203.093334 203.093334 0 112.071111 91.022222 203.093333 203.093334 203.093333s203.093333-91.022222 203.093333-203.093333-91.591111-203.093333-203.093333-203.093334zm0 394.808889c-105.813333 0-191.715556-85.902222-191.715556-191.715555s85.902222-191.715556 191.715556-191.715556 191.715556 85.902222 191.715555 191.715556c0 105.244444-86.471111 191.715556-191.715555 191.715555z"/><path d="m1086.577778 602.453333-9.102222-6.257777-42.666667 63.715555h-36.977778l-43.235555-63.715555-9.102223 6.257777 38.684445 57.457778h-45.511111v11.377778h73.955555v45.511111h-73.955555v11.377778h73.955555v56.888889h11.377778v-56.888889h79.644444v-11.377778h-79.644444v-45.511111h79.644444v-11.377778h-55.182222z"/></g></svg>