<svg enable-background="new 0 0 244.3 200" viewBox="0 0 244.3 200" xmlns="http://www.w3.org/2000/svg"><path d="m164.4 94.7s-16.9 68.9-76.4 88.9c-30.4 10.2-58.2-9.4-58.2-9.4s32.7 8.4 62.8-18.1 46.1-64.8 46.1-64.8 18.9 3.9 25.7 3.4z" fill="#878787"/><path d="m142.4 82.4s11.6-25.1 30.5-37.2c23.3-14.9 39.1-13.8 48.4-9.1s5.5 8.3 5.5 8.3-3.4-5-12.5-5.6-20.7 2.2-32 17.2c-11.4 15.1-14 28.9-14 28.9z" fill="#878787"/><path d="m56.5 174.1s-26.9-1.2-30.3-20.1c-1.4-7.9-2-25 17.1-42.6s53.9-27.8 101.1-17.6 78.7-6.3 87.3-22.7c7.3-13.9 4.1-28.9-10.5-35 0 0 10.7 12.8-2.8 24s-35.7 21.4-63.6 22.2-54.3-2.7-72.8-1c-12.2 1.1-55.7 7.9-68.7 36s1.8 49.5 16.3 56.9c14.7 7.4 26.9-.1 26.9-.1z" fill="#333"/><g font-family="'SourceHanSansCN-Light-GBpc-EUC-H'" font-size="13.5634"><text transform="translate(15.0858 37.4399)">八達通</text><text transform="translate(64.6476 37.4399)">Octopus</text></g></svg>