<svg height="200" viewBox="0 0 1024 1024" width="200" xmlns="http://www.w3.org/2000/svg"><path d="m1021.504 243.488c-11.008-49.856-55.36-87.2-108.352-87.296l-.064.064-802.432.416c-60.864-.064-110.624 49.696-110.656 110.688v489.568c.032 60.896 49.664 110.592 110.656 110.592l802.208.256c61.152-.096 110.912-49.952 111.008-110.944l.128-489.6c-.096-8.224-.8-16.096-2.496-23.744zm-52.736 513.44c-.096 30.784-25.056 55.776-55.872 55.84l-802.176-.288c-30.656-.064-55.616-24.992-55.648-55.68l-.032-299.968 913.92-.256c-.032 53.504-.192 300.352-.192 300.352zm.16-475.424-913.856.352v-14.496c-.064-14.944 5.76-28.864 16.288-39.392 10.56-10.528 24.448-16.32 39.328-16.32l802.368-.416h.32c14.72.192 28.608 5.888 39.136 16.416 10.528 10.624 16.352 24.544 16.416 39.456z"/><path d="m178.656 675.84c-10.496 0-18.944 8.448-18.88 18.816-.032 10.432 8.384 18.88 18.88 18.88l646.592.32c10.368 0 18.816-8.512 18.976-18.976-.064-10.528-8.512-18.88-18.976-18.88z"/><path d="m825.312 623.04c10.432 0 18.88-8.448 18.88-18.816 0-10.528-8.512-19.072-18.976-18.976h-143.456c-10.432 0-18.88 8.544-18.816 18.88 0 10.464 8.544 18.976 18.976 18.976z"/><path d="m159.744 603.968c.032 10.528 8.512 18.976 18.976 18.976l348-.064c10.336 0 18.816-8.448 18.88-18.816 0-10.528-8.448-18.912-18.88-18.976h-348.064c-10.432.064-18.912 8.512-18.912 18.88z"/></svg>