<svg height="200" viewBox="0 0 1024 1024" width="200" xmlns="http://www.w3.org/2000/svg"><g fill="#222"><path d="m528 864a366.88 366.88 0 1 1 143.25-28.93 365.67 365.67 0 0 1 -143.25 28.93zm0-672a304 304 0 1 0 215 89 302 302 0 0 0 -215-89z"/><path d="m160 896a32 32 0 0 1 -22.63-54.63 155.56 155.56 0 0 0 44.83-127.79l-22-198.05a32 32 0 1 1 63.6-7.06l22 198a220.3 220.3 0 0 1 -63.18 180.12 31.9 31.9 0 0 1 -22.62 9.41zm368-224c-97.05 0-176-79-176-176s79-176 176-176 176 79 176 176-78.95 176-176 176zm0-288a112 112 0 1 0 112 112 112.12 112.12 0 0 0 -112-112z"/></g></svg>