<svg height="104" viewBox="0 0 430 104" width="430" xmlns="http://www.w3.org/2000/svg" xmlns:xlink="http://www.w3.org/1999/xlink"><linearGradient id="a" x1="50.035837%" x2="50.035837%" y1="100.102003%" y2="-.010948%"><stop offset="0" stop-color="#58acda"/><stop offset="1" stop-color="#8fd1f4"/></linearGradient><g fill="none" fill-rule="nonzero"><g fill="#64b5e0"><g transform="translate(374 16)"><path d="m4.34703196 72 25.82648404-66.58064516-2.0456621-5.41935484-28.1278539 72z"/><path d="m56 72-20.7123288-53.4193548-2.3013698 5.6774193 18.6666666 47.7419355z"/></g><g transform="translate(272 16)"><path d="m0 0v72h4.16v-68.12903226z"/><path d="m65 19.3548387v52.6451613h-3.9v-48.516129z"/><path d="m.52 6.19354839 31.98 31.74193551 2.86-2.8387097-35.36-35.0967742z"/><path d="m64.74 5.93548387-31.98 31.74193553-2.86-2.8387097 35.1-34.8387097z"/></g><path d="m228 16h4v72h-4z"/><g transform="translate(138 16)"><path d="m31.7777778 0h-31.7777778v3.87096774h29.4141414z"/><path d="m2.88888889 67.8709677-2.88888889 4.1290323h52v-4.1290323z"/><path d="m47.2727273 0-44.90909094 68.6451613 3.41414142 2.0645161 46.22222222-70.7096774z"/></g></g><path d="m98.3501931 104h-92.70599264c-3.10431025 0-5.64420046-2.499332-5.64420046-5.5540721v-92.8918558c0-3.05473966 2.53989021-5.5540721 5.64420046-5.5540721h92.70599264c3.1043099 0 5.6442009 2.49933244 5.6442009 5.5540721v92.8918558c.141105 3.0547401-2.398786 5.5540721-5.6442009 5.5540721z" fill="url(#a)"/></g></svg>