<svg height="200" viewBox="0 0 1024 1024" width="200" xmlns="http://www.w3.org/2000/svg"><path d="m829.821497 31.182186h-63.710021c-17.642822 0-37.951357 10.854209-37.951357 28.478612s20.308535 35.268248 37.951357 35.268248h63.710021c37.990243 0 63.74686 25.736151 63.74686 63.707974v733.547839c0 37.9708-25.756617 63.706951-63.74686 63.706951l-686.064384-.000001c-37.971823 0-79.989799-25.735128-79.989799-63.706951v-733.546815c0-37.971823 25.75457-63.707974 63.727417-63.707974h79.989799c17.625426 0 24.414039-17.643845 24.414039-35.268248s-6.788613-28.478612-24.414039-28.478612h-79.989799c-89.520873 0-127.474276 55.577806-127.474276 128.836297v725.417671c0 78.626755 47.464011 134.203538 134.224004 134.203538h688.786379c86.798878 0 134.26289-46.104037 134.26289-134.203538l-.000001-725.418694c.001024-73.25849-44.759413-128.836297-127.47223-128.836297zm-622.336967 287.454898c0 17.625426 14.901385 32.54523 32.525788 32.54523h478.637148c17.643845 0 32.562627-14.919804 32.562627-32.54523 0-17.623379-14.918781-32.544207-32.562627-32.544207h-478.637149c-17.624402 0-32.525787 14.919804-32.525787 32.544207zm509.820358 143.737682h-477.294571c-17.624403 0-32.525788 14.919804-32.525788 32.543184 0 17.625426 14.901385 32.54523 32.525788 32.54523h478.637148c17.643845 0 32.562627-14.919804 32.562627-32.54523-1.378394-19.004843-16.280802-32.543184-33.905204-32.543184zm0 191.162808h-477.294571c-17.624403 0-32.525788 14.939247-32.525788 32.544207 0 17.625426 14.901385 32.546254 32.525788 32.546254h478.637148c17.643845 0 32.562627-14.920828 32.562627-32.546254-1.378394-18.9854-16.280802-32.544207-33.905204-32.544207zm-348.458274-542.345122h222.364437c25.755594 0 47.446615-25.775037 47.446615-55.615669 0-29.782304-21.691021-55.576783-48.827055-55.576783l-220.983997 0c-27.136034 0-48.807612 25.755594-48.807612 55.576783 0 29.840632 21.671579 55.615669 48.807612 55.615669zm0 0"/></svg>